<?xml version="1.0" encoding="utf-8"?>
<!-- Generator: Adobe Illustrator 22.1.0, SVG Export Plug-In . SVG Version: 6.00 Build 0)  -->
<svg version="1.1" id="Layer_1" xmlns="http://www.w3.org/2000/svg" xmlns:xlink="http://www.w3.org/1999/xlink" x="0px" y="0px"
	 viewBox="0 0 1000 652.5" style="enable-background:new 0 0 1000 652.5;" xml:space="preserve">
<style type="text/css">
	.st0{fill:#FFFFFF;}
	.st1{font-family:'Roboto-BlackItalic';}
	.st2{font-size:86.109px;}
	.st3{font-family:'Lato-Bold';}
	.st4{font-size:42.8075px;}
</style>
<g>
	<g>
		<path class="st0" d="M161.1,330.2l-1.5-31.3c0,0,82.6-72.4,229.6-43.8c74.8,14.6,168.9,30.3,252.5-6.7c0,0-71.9,50.3-202.2,29.7
			c-47.9-7.6-164.5-37.4-276.6,21.9L161.1,330.2z"/>
		<path class="st0" d="M826.3,338c0,0,23.2-38.6-4.1-88.1c0,0-56,25.2-140.9-4.6c-46.6-16.3-109.8-37.1-204.1-23.4
			c-30.4,4.4-53.4,8.6-108.4,21.7c0,0,129.4-55.2,236.5-33.6c85.4,17.1,135.7,56.1,220,29.4C825.5,239.4,858.6,289.4,826.3,338z"/>
	</g>
	<g>
		<text transform="matrix(1 0 0 1 237.7374 380.5343)" class="st0 st1 st2">Community</text>
	</g>
	<g>
		<text transform="matrix(1 0 0 1 305.9436 435.3076)" class="st0 st3 st4"> Rides</text>
	</g>
</g>
</svg>
